<svg width="2182" height="414" viewBox="0 0 2182 414" fill="none" xmlns="http://www.w3.org/2000/svg">
<path d="M2154.36 102.92C2136.39 71.3193 2111.74 46.3866 2080.14 27.8319C2048.54 9.27731 2013.17 0 1974.32 0H1825.89C1786.75 0 1751.38 9.27731 1720.07 27.8319C1688.47 46.3866 1663.82 71.3193 1645.85 102.92C1627.87 134.521 1618.89 169.311 1618.89 207C1618.89 244.689 1627.87 279.479 1645.85 311.08C1663.82 342.681 1688.47 367.613 1720.07 386.168C1751.67 404.723 1787.04 414 1825.89 414H1974.32C2013.46 414 2048.83 404.723 2080.14 386.168C2111.74 367.613 2136.39 342.681 2154.36 311.08C2172.34 279.479 2181.32 244.689 2181.32 207C2181.32 169.311 2172.34 134.231 2154.36 102.92ZM2098.99 279.479C2086.23 301.513 2069.12 318.618 2047.09 331.664C2025.06 344.42 2000.7 350.798 1974.03 350.798C1947.07 350.798 1922.72 344.42 1900.97 331.664C1878.94 318.908 1861.84 301.513 1849.08 279.479C1836.32 257.445 1830.23 233.382 1830.23 207C1830.23 180.618 1836.61 156.265 1849.08 134.521C1861.84 112.487 1878.94 95.3823 1900.97 82.3361C1923.01 69.5798 1947.36 63.2017 1974.03 63.2017C2000.99 63.2017 2025.35 69.5798 2047.09 82.3361C2069.12 95.0924 2086.23 112.487 2098.99 134.521C2111.74 156.555 2117.83 180.618 2117.83 207C2118.12 233.382 2111.74 257.445 2098.99 279.479Z" fill="#111827"/>
<path d="M365.584 189.895C337.172 189.895 315.718 189.315 301.513 188.156C287.017 186.996 273.681 185.256 260.924 182.937C249.618 180.618 239.471 179.458 230.773 179.458C218.597 179.458 208.739 183.227 201.782 191.055C194.824 198.882 191.055 208.16 191.055 219.177C191.055 229.324 194.534 238.311 201.782 246.139C208.739 253.967 218.597 257.735 230.773 257.735C247.298 257.735 266.723 252.807 287.017 251.067C296.874 250.198 310.5 249.618 327.895 249.618V303.542C316.008 318.038 300.063 329.635 279.769 337.462C259.475 345.58 237.441 349.639 213.668 349.639C186.126 349.639 161.483 343.551 140.319 331.664C119.155 319.488 102.34 302.672 90.7437 280.929C78.8571 259.185 73.0588 234.542 73.0588 207C73.0588 179.458 78.8571 154.815 90.1639 133.651C101.471 112.488 117.706 95.9623 138.29 84.3657C158.874 72.769 182.647 66.9707 209.609 66.9707C239.181 66.9707 260.634 72.1892 278.899 84.6556C304.702 102.63 306.731 121.765 324.416 129.882C349.059 141.189 367.034 126.114 370.513 123.214C379.5 114.807 383.559 104.95 382.399 93.3531C381.24 81.7564 375.731 70.4497 365.874 60.0127C350.219 43.7774 328.765 30.1514 301.803 18.8447C274.261 6.6682 243.819 0.869873 209.899 0.869873C170.761 0.869873 135.391 9.56735 103.5 26.9623C71.6092 44.3573 46.3866 68.7102 27.8319 100.021C9.27731 131.332 0 166.992 0 206.71C0 246.429 9.27731 282.088 27.8319 313.399C46.3866 344.71 71.6093 369.353 103.79 386.748C135.971 404.433 171.63 413.13 210.479 413.13C247.878 413.13 282.088 406.462 313.109 393.126C344.13 379.79 368.773 359.496 387.328 332.824C394.286 322.097 398.055 308.761 398.055 292.525V226.425C398.055 215.408 395.155 206.42 389.067 199.752C383.269 193.084 375.441 189.895 365.584 189.895Z" fill="#111827"/>
<path d="M603.026 238.311C632.017 240.051 635.207 245.269 661.879 245.269C674.345 245.269 684.202 241.79 692.03 234.832C699.858 227.584 703.627 218.307 703.627 206.71C703.627 195.403 699.858 185.836 692.03 178.298C684.202 170.761 674.345 166.992 662.169 166.992C635.497 166.992 632.597 172.79 603.896 174.819C591.719 175.689 574.614 175.979 552.001 175.979V70.1598C575.194 69.8699 594.039 69.8699 608.244 70.4497C622.45 71.0296 634.337 71.8993 644.194 73.9287C675.215 80.5968 687.681 87.2648 710.875 87.2648C723.921 87.2648 734.358 83.7858 741.896 76.538C749.433 69.2901 753.492 59.7228 753.492 47.5464C753.492 34.5001 749.433 24.3531 741.026 17.3951C732.618 10.4371 721.022 6.66821 706.236 6.66821H513.442C503.875 6.66821 496.337 9.56737 490.539 15.3657C484.74 21.164 481.841 28.4119 481.841 37.6892V376.891C481.841 385.878 484.74 393.416 490.539 399.214C496.337 405.013 503.875 407.912 513.442 407.912H706.236C721.602 407.912 733.488 404.143 741.316 396.895C749.433 389.647 753.492 379.5 753.492 367.034C753.492 354.857 749.723 345 741.896 337.462C734.068 329.924 723.921 326.156 710.875 326.156C685.942 326.156 671.156 338.332 625.929 342.681C609.694 344.42 585.051 344.71 552.291 344.42V237.151C573.744 237.151 590.56 237.441 603.026 238.311Z" fill="#111827"/>
<path d="M1159.38 284.407C1148.65 275.71 1137.34 272.521 1125.17 274.84C1095.02 280.638 1095.31 308.76 1069.5 328.185C1051.82 341.521 1028.34 348.189 999.055 348.189C973.832 348.189 951.219 342.39 931.505 330.504C911.79 318.617 896.425 302.092 885.698 280.638C874.971 259.185 869.462 234.542 869.462 207C869.462 179.458 874.971 154.815 885.698 133.651C896.425 112.487 911.79 95.672 931.215 84.0753C950.639 72.4787 973.252 66.3904 999.055 66.3904C1012.97 66.3904 1025.73 67.2602 1037.03 71.0291C1094.73 91.3232 1081.39 118.865 1110.09 133.361C1117.34 137.13 1124.88 138.58 1133 138C1140.82 137.42 1148.36 134.231 1155.61 128.143C1165.47 120.315 1169.82 110.168 1168.95 97.9913C1168.08 85.8148 1162.57 73.9283 1152.71 62.6215C1138.21 45.2266 1117.63 30.7308 1091.54 18.8442C1065.16 6.95768 1035.29 1.15936 1001.95 1.15936C963.685 1.15936 928.895 9.85684 897.874 26.9619C866.563 44.0669 842.21 68.4199 824.236 99.7308C806.261 131.042 797.273 166.991 797.273 207.29C797.273 247.588 806.261 283.248 824.236 314.559C842.21 345.869 866.853 370.222 897.874 387.617C928.895 405.012 963.685 413.71 1001.95 413.71C1036.74 413.71 1067.19 407.622 1093.57 395.445C1119.95 383.269 1141.11 367.903 1156.77 349.928C1167.5 338.622 1173 326.735 1173.58 314.559C1173.87 301.802 1169.24 291.945 1159.38 284.407Z" fill="#111827"/>
<path d="M1335.64 44.0674C1335.64 29.2816 1331.87 20.5842 1324.34 12.7564C1316.8 4.9287 1305.78 0.869873 1291.29 0.869873C1277.37 0.869873 1266.64 5.50853 1259.11 14.7858C1251.28 24.0632 1247.51 35.3699 1247.51 48.706V364.714C1247.51 378.051 1251.28 389.357 1259.11 398.635C1266.93 407.912 1277.66 412.551 1291.29 412.551C1305.78 412.551 1316.8 408.492 1324.34 400.664C1331.87 392.836 1335.64 382.399 1335.64 369.933C1335.35 360.366 1333.61 350.798 1331 338.622C1326.37 318.038 1323.47 307.891 1321.15 286.147C1319.41 269.912 1318.54 243.24 1318.54 206.42C1318.54 169.601 1319.41 143.219 1321.15 126.693C1325.79 84.0758 1335.64 67.8405 1335.64 44.0674Z" fill="#111827"/>
<path d="M1484.95 269.042C1470.17 255.416 1449 233.672 1421.46 204.39C1451.32 172.5 1474.23 149.596 1489.88 135.39C1505.54 121.474 1520.03 109.298 1533.95 98.8609C1547 89.2937 1557.14 80.8862 1564.1 73.3483C1572.8 63.4912 1577.15 53.3441 1577.44 42.6172C1577.73 31.8904 1573.96 22.903 1566.42 15.3651C1556.85 6.37775 1546.42 2.31893 1534.53 3.47859C1522.64 4.63825 1511.34 11.3063 1500.32 23.4828L1356.52 179.747C1348.11 189.315 1344.05 198.012 1344.05 206.42C1344.05 215.117 1348.11 224.105 1356.52 233.092L1506.99 391.676C1518 403.563 1529.6 409.941 1541.49 410.811C1553.37 411.68 1564.39 407.911 1573.67 398.634C1592.8 379.5 1584.97 355.147 1570.48 339.491C1557.43 326.155 1538.88 318.617 1484.95 269.042Z" fill="#111827"/>
</svg>
